<?xml version="1.0" encoding="utf-8"?>
<!-- Generator: Adobe Illustrator 19.0.0, SVG Export Plug-In . SVG Version: 6.00 Build 0)  -->
<svg version="1.1" id="Layer_1" xmlns="http://www.w3.org/2000/svg" xmlns:xlink="http://www.w3.org/1999/xlink" x="0px" y="0px"
	 viewBox="0 0 40 40" style="enable-background:new 0 0 40 40;" xml:space="preserve">
<style type="text/css">
	.st0{fill:#FFFFFF;}
</style>
<g>
	<path class="st0" d="M38.1,9.3c-0.2,0.4-0.6,0.6-1,0.6c-1.6,0-3.2,0-4.7,0c0,0-0.1,0-0.1,0c-0.5,0-0.9-0.3-0.9-0.7
		c0-0.4,0.3-0.8,0.9-0.8c1.1,0,2.2,0,3.4,0c0.2,0,0.3,0,0.5,0C36,8.2,36,8.1,36,8c-0.2-0.5-0.5-1-0.7-1.5c-0.2-0.3-0.2-0.6,0-0.9
		c0.3-0.6,0.6-1.1,0.9-1.8c-2.1,0-4.2,0-6.3,0c0,2.5,0,5,0,7.5c0.7,0.1,1.3,0.4,1.4,1.2c0.1,0.7,0.1,1.5,0,2.2
		c-0.1,0.7-0.7,1.2-1.5,1.2c-2.8,0-5.6,0-8.5,0c-0.1,0-0.3,0-0.4,0c0,6.8,0,13.5,0,20.3c0.1,0,0.2,0,0.4,0c1.5,0,3.1,0,4.6,0
		c0.1,0,0.2,0,0.4,0c0.4,0.1,0.7,0.4,0.7,0.8c0,0.4-0.3,0.7-0.7,0.7c-0.1,0-0.2,0-0.3,0c-3.8,0-7.6,0-11.4,0c-3.8,0-7.6,0-11.4,0
		c-0.5,0-0.8-0.1-1-0.6c0-0.1,0-0.2,0-0.4c0.2-0.4,0.6-0.6,1-0.6c0.4,0,0.8,0,1.2,0c0-3.5,0-7,0-10.5c-0.4,0-0.8,0-1.2,0
		c-0.5,0-0.8-0.1-1-0.6c0-3,0-6,0-9c0.2-0.7,0.4-1.3,0.8-1.8c0.8-0.9,1.7-1.4,2.9-1.4c1,0,1.9,0,2.9,0c0.6,0,1,0.4,0.8,1
		c-0.1,0.4-0.4,0.5-0.9,0.5c-0.9,0-1.8,0-2.8,0c-1.1,0-2,0.6-2.3,1.7c-0.1,0.2-0.1,0.5-0.1,0.7c0,2.4,0,4.7,0,7.1c0,0.1,0,0.2,0,0.3
		c0.4,0,0.8,0,1.2,0c0.7,0,1,0.3,1,1c0,3.5,0,7.1,0,10.6c0,0.1,0,0.3,0,0.4c0.5,0,1,0,1.5,0c0-0.1,0-0.3,0-0.4c0-2.8,0-5.5,0-8.3
		c0-0.7,0.3-1.1,0.8-1c0.5,0,0.7,0.4,0.7,1c0,2.8,0,5.6,0,8.3c0,0.1,0,0.3,0,0.4c0.5,0,1,0,1.5,0c0-0.1,0-0.3,0-0.4
		c0-3.5,0-7,0-10.6c0-0.2,0-0.4,0.1-0.6c0.1-0.4,0.5-0.5,0.8-0.5c0.7,0,1.4,0,2.1,0c0-0.1,0-0.3,0-0.4c0-1.3,0-2.7,0-4
		c0-0.5,0.3-0.9,0.8-0.9c0.4,0,0.7,0.3,0.7,0.6c0,0.1,0,0.3,0,0.4c0,5.2,0,10.5,0,15.7c0,0.2,0,0.3,0,0.5c0.5,0,1,0,1.5,0
		c0-0.2,0-0.3,0-0.5c0-3.5,0-6.9,0-10.4c0-0.2,0-0.3,0-0.5c0.1-0.3,0.3-0.6,0.7-0.6c0.3,0,0.7,0.2,0.8,0.5c0.1,0.2,0.1,0.3,0.1,0.5
		c0,3.5,0,7.1,0,10.6c0,0.1,0,0.3,0,0.4c0.5,0,1,0,1.5,0c0-0.2,0-0.3,0-0.4c0-6.8,0-13.5,0-20.3c0-0.2,0-0.4,0.1-0.6
		c0.1-0.4,0.5-0.4,0.8-0.4c2.1,0,4.2,0,6.3,0c1.1,0,2.2,0,3.3,0c0-0.5,0-1,0-1.5c-0.3,0-0.7,0-1,0c-4.6,0-9.2,0-13.8,0
		c-1.9,0-3.2,1.3-3.2,3.2c0,1.8,0,3.7,0,5.5c0,0.2,0,0.4-0.1,0.5c-0.1,0.3-0.4,0.6-0.7,0.6c-0.3,0-0.6-0.2-0.7-0.6
		c0-0.1,0-0.3,0-0.5c0-1.9,0-3.7,0-5.6c0-2.3,1.4-4.1,3.6-4.6c0.4-0.1,0.8-0.1,1.2-0.1c4.3,0,8.5,0,12.8,0c0.2,0,0.3,0,0.5,0
		c0-0.2,0-0.3,0-0.5c0-2.6,0-5.1,0-7.7c0-0.6,0.3-0.9,0.9-0.9c2.6,0,5.3,0,7.9,0c0.5,0,0.8,0.1,1,0.6c0,0.1,0,0.3,0,0.4
		c-0.5,0.9-0.9,1.8-1.4,2.7c0,0.1,0,0.2,0,0.3c0.4,0.9,0.9,1.8,1.3,2.7C38.1,9,38.1,9.1,38.1,9.3z M13.2,36.2c0-3.5,0-7,0-10.5
		c-0.5,0-1,0-1.5,0c0,3.5,0,7,0,10.5C12.2,36.2,12.7,36.2,13.2,36.2z"/>
	<path class="st0" d="M38.1,37.1c-0.2,0.4-0.5,0.6-1,0.6c-2.7,0-5.3,0-8,0c-0.5,0-0.9-0.3-0.9-0.9c0-6.2,0-12.4,0-18.5
		c0-0.6,0.2-0.9,0.7-0.9c0.4-0.1,0.7,0.2,0.8,0.5c0,0.2,0.1,0.4,0.1,0.6c0,5.7,0,11.5,0,17.2c0,0.2,0,0.3,0,0.5c0.2,0,0.3,0,0.4,0
		c2.3,0,4.5,0,6.8,0c0.5,0,0.8,0.1,1,0.6C38.1,36.9,38.1,37,38.1,37.1z"/>
	<path class="st0" d="M17,2.3c2.1,0,3.8,1.7,3.8,3.8c0,2-1.7,3.8-3.8,3.8c-2.1,0-3.8-1.7-3.8-3.8C13.2,4,14.9,2.3,17,2.3z M19.2,6.1
		c0-1.2-1-2.3-2.3-2.3c-1.2,0-2.2,1-2.3,2.2c0,1.2,1,2.2,2.2,2.3C18.2,8.3,19.2,7.3,19.2,6.1z"/>
	<path class="st0" d="M4.2,7.6c0-2.1,1.7-3.8,3.8-3.8c2.1,0,3.7,1.7,3.8,3.8c0,2.1-1.7,3.8-3.8,3.8C5.9,11.3,4.2,9.6,4.2,7.6z
		 M8,5.3c-1.2,0-2.3,1-2.3,2.3c0,1.2,1,2.2,2.3,2.3c1.2,0,2.3-1,2.3-2.3C10.2,6.3,9.2,5.3,8,5.3z"/>
	<path class="st0" d="M17.7,14.4c0,0.5,0,1,0,1.5c-0.5,0-1,0-1.5,0c0-0.5,0-1,0-1.5C16.7,14.4,17.2,14.4,17.7,14.4z"/>
</g>
</svg>
